<?xml version="1.0" encoding="UTF-8" standalone="no"?>
<!-- Created with Inkscape (http://www.inkscape.org/) -->

<svg
   xmlns:dc="http://purl.org/dc/elements/1.1/"
   xmlns:cc="http://creativecommons.org/ns#"
   xmlns:rdf="http://www.w3.org/1999/02/22-rdf-syntax-ns#"
   xmlns:svg="http://www.w3.org/2000/svg"
   xmlns="http://www.w3.org/2000/svg"
   xmlns:sodipodi="http://sodipodi.sourceforge.net/DTD/sodipodi-0.dtd"
   xmlns:inkscape="http://www.inkscape.org/namespaces/inkscape"
   width="300"
   height="300"
   id="svg2"
   version="1.1"
   inkscape:version="0.47 r22583"
   sodipodi:docname="LAYERS.svg">
  <defs
     id="defs4">
    <inkscape:perspective
       sodipodi:type="inkscape:persp3d"
       inkscape:vp_x="0 : 526.18109 : 1"
       inkscape:vp_y="0 : 1000 : 0"
       inkscape:vp_z="744.09448 : 526.18109 : 1"
       inkscape:persp3d-origin="372.04724 : 350.78739 : 1"
       id="perspective10" />
    <inkscape:perspective
       id="perspective3620"
       inkscape:persp3d-origin="0.5 : 0.33333333 : 1"
       inkscape:vp_z="1 : 0.5 : 1"
       inkscape:vp_y="0 : 1000 : 0"
       inkscape:vp_x="0 : 0.5 : 1"
       sodipodi:type="inkscape:persp3d" />
    <inkscape:perspective
       id="perspective3642"
       inkscape:persp3d-origin="0.5 : 0.33333333 : 1"
       inkscape:vp_z="1 : 0.5 : 1"
       inkscape:vp_y="0 : 1000 : 0"
       inkscape:vp_x="0 : 0.5 : 1"
       sodipodi:type="inkscape:persp3d" />
    <inkscape:perspective
       id="perspective3687"
       inkscape:persp3d-origin="0.5 : 0.33333333 : 1"
       inkscape:vp_z="1 : 0.5 : 1"
       inkscape:vp_y="0 : 1000 : 0"
       inkscape:vp_x="0 : 0.5 : 1"
       sodipodi:type="inkscape:persp3d" />
    <inkscape:perspective
       id="perspective3768"
       inkscape:persp3d-origin="0.5 : 0.33333333 : 1"
       inkscape:vp_z="1 : 0.5 : 1"
       inkscape:vp_y="0 : 1000 : 0"
       inkscape:vp_x="0 : 0.5 : 1"
       sodipodi:type="inkscape:persp3d" />
    <inkscape:perspective
       id="perspective3768-5"
       inkscape:persp3d-origin="0.5 : 0.33333333 : 1"
       inkscape:vp_z="1 : 0.5 : 1"
       inkscape:vp_y="0 : 1000 : 0"
       inkscape:vp_x="0 : 0.5 : 1"
       sodipodi:type="inkscape:persp3d" />
    <inkscape:perspective
       id="perspective3823"
       inkscape:persp3d-origin="0.5 : 0.33333333 : 1"
       inkscape:vp_z="1 : 0.5 : 1"
       inkscape:vp_y="0 : 1000 : 0"
       inkscape:vp_x="0 : 0.5 : 1"
       sodipodi:type="inkscape:persp3d" />
    <inkscape:perspective
       id="perspective3845"
       inkscape:persp3d-origin="0.5 : 0.33333333 : 1"
       inkscape:vp_z="1 : 0.5 : 1"
       inkscape:vp_y="0 : 1000 : 0"
       inkscape:vp_x="0 : 0.5 : 1"
       sodipodi:type="inkscape:persp3d" />
    <inkscape:perspective
       id="perspective3871"
       inkscape:persp3d-origin="0.5 : 0.33333333 : 1"
       inkscape:vp_z="1 : 0.5 : 1"
       inkscape:vp_y="0 : 1000 : 0"
       inkscape:vp_x="0 : 0.5 : 1"
       sodipodi:type="inkscape:persp3d" />
    <inkscape:perspective
       id="perspective3871-3"
       inkscape:persp3d-origin="0.5 : 0.33333333 : 1"
       inkscape:vp_z="1 : 0.5 : 1"
       inkscape:vp_y="0 : 1000 : 0"
       inkscape:vp_x="0 : 0.5 : 1"
       sodipodi:type="inkscape:persp3d" />
  </defs>
  <sodipodi:namedview
     id="base"
     pagecolor="#ffffff"
     bordercolor="#666666"
     borderopacity="1.0"
     inkscape:pageopacity="0.0"
     inkscape:pageshadow="2"
     inkscape:zoom="1.4142136"
     inkscape:cx="429.79936"
     inkscape:cy="269.94573"
     inkscape:document-units="px"
     inkscape:current-layer="layer1"
     showgrid="false"
     inkscape:snap-bbox="true"
     inkscape:object-paths="true"
     inkscape:window-width="1920"
     inkscape:window-height="1028"
     inkscape:window-x="0"
     inkscape:window-y="25"
     inkscape:window-maximized="1"
     inkscape:snap-grids="false"
     inkscape:snap-page="true" />
  <metadata
     id="metadata7">
    <rdf:RDF>
      <cc:Work
         rdf:about="">
        <dc:format>image/svg+xml</dc:format>
        <dc:type
           rdf:resource="http://purl.org/dc/dcmitype/StillImage" />
      </cc:Work>
    </rdf:RDF>
  </metadata>
  <g
     inkscape:label="Layer 1"
     inkscape:groupmode="layer"
     id="layer1"
     transform="translate(0,-752.36218)">
    <path
       sodipodi:type="arc"
       style="fill:none;stroke:#241c1c;stroke-width:1.10000002;stroke-miterlimit:4;stroke-opacity:1;stroke-dasharray:none"
       id="path2828"
       sodipodi:cx="153.7027"
       sodipodi:cy="153.82944"
       sodipodi:rx="25.185587"
       sodipodi:ry="26.127104"
       d="m 178.88828,153.82944 a 25.185587,26.127104 0 1 1 -50.37117,0 25.185587,26.127104 0 1 1 50.37117,0 z"
       transform="translate(0,752.36218)" />
    <path
       style="color:#000000;fill:#ffff00;fill-opacity:1;fill-rule:nonzero;stroke:#241c1c;stroke-width:1px;stroke-linecap:butt;stroke-linejoin:miter;stroke-miterlimit:4;stroke-opacity:1;stroke-dasharray:none;stroke-dashoffset:0;marker:none;visibility:visible;display:inline;overflow:visible;enable-background:accumulate"
       d="m 129.11759,148.13246 8.35714,-6.01334 17.24076,-0.002 12.7569,-4.41157 -3.88376,6.47293 9.88593,-0.70614 -1.41227,4.35452 6.02386,-0.5645 -2.31894,-6.0411 1.5392,-3.0487 -1.58319,-1.42591 0.83343,-2.51151 -7.46397,-1.08945 -5.74846,-3.46089 -5.56331,-1.6421 -2.78739,-0.30705 -4.17456,0.13567 -3.0458,0.55883 -5.00465,1.85579 -3.6394,2.23185 -4.45103,4.18979 -2.9925,4.42502 -2.36587,6.1279 -0.20212,0.87155 0,4.1e-4 z"
       id="path2832"
       sodipodi:nodetypes="ccccccccccccccccccccccccc"
       transform="translate(0,752.36218)" />
    <path
       sodipodi:type="arc"
       style="fill:none;stroke:#280b0b;stroke-width:1.10000002;stroke-miterlimit:4;stroke-opacity:1;stroke-dasharray:none"
       id="path3610"
       sodipodi:cx="140.10954"
       sodipodi:cy="153.94713"
       sodipodi:rx="4.8841209"
       sodipodi:ry="4.5898967"
       d="m 144.99366,153.94713 a 4.8841209,4.5898967 0 1 1 -9.76824,0 4.8841209,4.5898967 0 1 1 9.76824,0 z"
       transform="matrix(0.98780711,0,0,1.2434358,1.7083404,716.06284)" />
    <path
       sodipodi:type="arc"
       style="fill:none;stroke:#280b0b;stroke-width:1.10000002;stroke-miterlimit:4;stroke-opacity:1;stroke-dasharray:none"
       id="path3610-7"
       sodipodi:cx="140.10954"
       sodipodi:cy="153.94713"
       sodipodi:rx="4.8841209"
       sodipodi:ry="4.5898967"
       d="m 144.99366,153.94713 a 4.8841209,4.5898967 0 1 1 -9.76824,0 4.8841209,4.5898967 0 1 1 9.76824,0 z"
       transform="matrix(0.98780711,0,0,1.2434358,23.892841,716.18053)" />
    <path
       sodipodi:type="arc"
       style="fill:none;stroke:#280b0b;stroke-width:1.10000002;stroke-miterlimit:4;stroke-opacity:1;stroke-dasharray:none"
       id="path3656"
       sodipodi:cx="149.46587"
       sodipodi:cy="167.06953"
       sodipodi:rx="2.5891726"
       sodipodi:ry="2.765707"
       d="m 151.77864,165.82617 a 2.5891726,2.765707 0 1 1 -4.89322,1.01649 l 2.58045,0.22687 z"
       transform="matrix(1.4636457,0,0,0.93709259,-66.945408,767.18877)"
       sodipodi:start="5.8169065"
       sodipodi:end="9.5068998" />
    <path
       sodipodi:type="arc"
       style="fill:none;stroke:#280b0b;stroke-width:1.10000002;stroke-miterlimit:4;stroke-opacity:1;stroke-dasharray:none"
       id="path3673"
       sodipodi:cx="150.41862"
       sodipodi:cy="162.89644"
       sodipodi:rx="2.0388694"
       sodipodi:ry="1.1234586"
       d="m 152.45749,162.89644 a 2.0388694,1.1234586 0 1 1 -4.07773,0 2.0388694,1.1234586 0 1 1 4.07773,0 z"
       transform="translate(0,752.36218)" />
    <path
       sodipodi:type="arc"
       style="fill:none;stroke:#280b0b;stroke-width:1.10000002;stroke-miterlimit:4;stroke-opacity:1;stroke-dasharray:none"
       id="path3701"
       sodipodi:cx="152.8736"
       sodipodi:cy="184.9079"
       sodipodi:rx="5.5756836"
       sodipodi:ry="6.0749984"
       d="m 158.44928,184.9079 a 5.5756836,6.0749984 0 0 1 -11.00897,1.36416"
       transform="translate(3.4244788,746.00508)"
       sodipodi:start="0"
       sodipodi:end="2.9151078"
       sodipodi:open="true" />
    <path
       style="color:#000000;fill:none;fill-opacity:1;fill-rule:nonzero;stroke:#280b0b;stroke-width:1px;stroke-linecap:butt;stroke-linejoin:miter;stroke-miterlimit:4;stroke-opacity:1;stroke-dasharray:none;stroke-dashoffset:0;marker:none;visibility:visible;display:inline;overflow:visible;enable-background:accumulate"
       d="m 146.8846,178.98787 -25.54656,13.44378 1.76535,5.06065 19.41879,-8.12058 3.77719,25.00098 27.20413,-0.44091 0.55951,-26.32542 30.48162,0.23538 -0.48549,-6.12404 -31.40841,-1.64348 -6.61696,-3.45813"
       id="path3705"
       transform="translate(0,752.36218)"
       sodipodi:nodetypes="ccccccccccc" />
    <path
       sodipodi:type="arc"
       style="fill:none;stroke:#280b0b;stroke-width:1.10000002;stroke-miterlimit:4;stroke-opacity:1;stroke-dasharray:none"
       id="path3709"
       sodipodi:cx="208.62984"
       sodipodi:cy="184.2467"
       sodipodi:rx="4.910522"
       sodipodi:ry="4.1293073"
       d="m 204.19205,182.47894 a 4.910522,4.1293073 0 1 1 0.0727,3.65927"
       transform="translate(-0.13291402,751.60095)"
       sodipodi:start="3.5839851"
       sodipodi:end="8.9489569"
       sodipodi:open="true" />
    <flowRoot
       xml:space="preserve"
       id="flowRoot3734"
       style="font-size:4px;text-align:center;line-height:100%;writing-mode:lr-tb;text-anchor:middle;color:#000000;fill:#000000;fill-opacity:1;fill-rule:nonzero;stroke:#28220b;stroke-width:1;stroke-linecap:butt;stroke-linejoin:miter;stroke-miterlimit:4;stroke-opacity:1;stroke-dasharray:none;stroke-dashoffset:0;marker:none;visibility:visible;display:inline;overflow:visible;enable-background:accumulate;font-family:Small Fonts;-inkscape-font-specification:Small Fonts"
       transform="translate(-10.652052,751.52999)"><flowRegion
         id="flowRegion3736"><rect
           id="rect3738"
           width="37.615067"
           height="18.973969"
           x="148.62941"
           y="194.31168"
           style="font-size:4px;text-align:center;text-anchor:middle;stroke:#28220b;font-family:Small Fonts;-inkscape-font-specification:Small Fonts" /></flowRegion><flowPara
         id="flowPara3740"
         style="font-family:Liberation Mono;-inkscape-font-specification:Liberation Mono;font-size:6px;font-weight:normal;font-style:normal;font-stretch:normal;font-variant:normal;text-anchor:middle;text-align:center;writing-mode:lr;line-height:100%">I love</flowPara><flowPara
         id="flowPara3744"
         style="font-family:Liberation Mono;-inkscape-font-specification:Liberation Mono;font-size:6px;font-weight:normal;font-style:normal;font-stretch:normal;font-variant:normal;text-anchor:middle;text-align:center;writing-mode:lr;line-height:100%" /><flowPara
         id="flowPara3742"
         style="font-family:Liberation Mono;-inkscape-font-specification:Liberation Mono;font-size:6px;font-weight:normal;font-style:normal;font-stretch:normal;font-variant:normal;text-anchor:middle;text-align:center;writing-mode:lr;line-height:100%">Map</flowPara></flowRoot>    <path
       style="color:#000000;fill:none;fill-opacity:1;fill-rule:nonzero;stroke:#008080;stroke-width:1px;stroke-linecap:butt;stroke-linejoin:miter;stroke-miterlimit:4;stroke-opacity:1;stroke-dasharray:none;stroke-dashoffset:0;marker:none;visibility:visible;display:inline;overflow:visible;enable-background:accumulate"
       d="m 209.47103,179.43724 8.50904,-44.73163 8.04316,-16.95557"
       id="path3746"
       sodipodi:nodetypes="ccc"
       transform="translate(0,752.36218)" />
    <path
       style="color:#000000;fill:none;fill-opacity:1;fill-rule:nonzero;stroke:#008080;stroke-width:1px;stroke-linecap:butt;stroke-linejoin:miter;stroke-miterlimit:4;stroke-opacity:1;stroke-dasharray:none;stroke-dashoffset:0;marker:none;visibility:visible;display:inline;overflow:visible;enable-background:accumulate"
       d="m 208.71365,116.91785 -3.15865,10.85001 -0.33325,8.17502 1.00786,12.23357 3.43937,30.52306"
       id="path3748"
       sodipodi:nodetypes="ccccc"
       transform="translate(0,752.36218)" />
    <path
       style="color:#000000;fill:none;fill-opacity:1;fill-rule:nonzero;stroke:#008080;stroke-width:1px;stroke-linecap:butt;stroke-linejoin:miter;stroke-miterlimit:4;stroke-opacity:1;stroke-dasharray:none;stroke-dashoffset:0;marker:none;visibility:visible;display:inline;overflow:visible;enable-background:accumulate"
       d="m 246.32871,120.08018 -3.21327,15.66017 -33.36462,43.75195"
       id="path3750"
       sodipodi:nodetypes="ccc"
       transform="translate(0,752.36218)" />
    <path
       sodipodi:type="arc"
       style="fill:#ff00ff;stroke:#ff00ff;stroke-width:1.10000001999999997;stroke-miterlimit:4;stroke-opacity:1;stroke-dasharray:none"
       id="path3754"
       sodipodi:cx="216.66667"
       sodipodi:cy="94.278473"
       sodipodi:rx="15.652725"
       sodipodi:ry="17.65345"
       d="m 232.3194,94.278473 a 15.652725,17.65345 0 1 1 -31.30545,0 15.652725,17.65345 0 1 1 31.30545,0 z"
       transform="translate(-7.9530218,757.34811)" />
    <path
       sodipodi:type="arc"
       style="fill:#008000;stroke:#008000;stroke-width:1.10000001999999997;stroke-miterlimit:4;stroke-opacity:1;stroke-dasharray:none"
       id="path3754-4"
       sodipodi:cx="216.66667"
       sodipodi:cy="94.278473"
       sodipodi:rx="15.652725"
       sodipodi:ry="17.65345"
       d="m 232.3194,94.278473 a 15.652725,17.65345 0 1 1 -31.30545,0 15.652725,17.65345 0 1 1 31.30545,0 z"
       transform="translate(9.3565582,758.1803)" />
    <path
       sodipodi:type="arc"
       style="fill:#ff0000;stroke:#ff0000;stroke-width:1.10000001999999997;stroke-miterlimit:4;stroke-opacity:1;stroke-dasharray:none"
       id="path3754-41"
       sodipodi:cx="216.66667"
       sodipodi:cy="94.278473"
       sodipodi:rx="15.652725"
       sodipodi:ry="17.65345"
       d="m 232.3194,94.278473 a 15.652725,17.65345 0 1 1 -31.30545,0 15.652725,17.65345 0 1 1 31.30545,0 z"
       transform="translate(29.662038,760.51044)" />
    <path
       sodipodi:type="arc"
       style="fill:none;stroke:#28220b;stroke-width:1.10000002;stroke-miterlimit:4;stroke-opacity:1;stroke-dasharray:none"
       id="path3791"
       sodipodi:cx="117.99478"
       sodipodi:cy="195.95244"
       sodipodi:rx="3.402004"
       sodipodi:ry="3.3523788"
       d="m 121.39679,195.95244 a 3.402004,3.3523788 0 1 1 -3.16861,-3.34448"
       transform="matrix(1.0212239,0,0,0.87651478,-1.0253949,777.65354)"
       sodipodi:start="0"
       sodipodi:end="4.7810494"
       sodipodi:open="true" />
    <path
       style="color:#000000;fill:none;fill-opacity:1;fill-rule:nonzero;stroke:#2b0000;stroke-width:1px;stroke-linecap:butt;stroke-linejoin:miter;stroke-miterlimit:4;stroke-opacity:1;stroke-dasharray:none;stroke-dashoffset:0;marker:none;visibility:visible;display:inline;overflow:visible;enable-background:accumulate"
       d="m 119.46086,194.10818 -0.29103,-1.25285 -0.33287,-0.91541 -0.12483,-0.62414 0.0832,-0.16644 0.54092,-0.12483 0.79058,-0.0416 c 0,0 0.12483,0.20805 0.29127,0.29127 0.16644,0.0832 0.95158,1.24825 0.95158,1.24825"
       id="path3793"
       transform="translate(0,752.36218)" />
    <path
       style="color:#000000;fill:none;fill-opacity:1;fill-rule:nonzero;stroke:#501616;stroke-width:1px;stroke-linecap:butt;stroke-linejoin:miter;stroke-miterlimit:4;stroke-opacity:1;stroke-dasharray:none;stroke-dashoffset:0;marker:none;visibility:visible;display:inline;overflow:visible;enable-background:accumulate"
       d="M 173.5 213.90625 L 170.25 213.96875 L 146.3125 214.375 L 146.875 239.65625 L 154.96875 239.59375 L 156.6875 217.625 L 162.03125 217.625 L 164.28125 239.90625 L 173 239.75 L 173.5 213.90625 z "
       transform="translate(0,752.36218)"
       id="path3799" />
    <path
       sodipodi:type="arc"
       style="fill:none;stroke:#280b0b;stroke-width:0.5;stroke-miterlimit:4;stroke-opacity:1;stroke-dasharray:none"
       id="path3811"
       sodipodi:cx="140.14107"
       sodipodi:cy="156.96707"
       sodipodi:rx="1.0818491"
       sodipodi:ry="1.0194347"
       d="m 141.22292,156.96707 a 1.0818491,1.0194347 0 1 1 -2.1637,0 1.0818491,1.0194347 0 1 1 2.1637,0 z"
       transform="matrix(1.1734638,0,0,1.1074484,-22.945703,733.08002)" />
    <path
       sodipodi:type="arc"
       style="fill:none;stroke:#280b0b;stroke-width:0.5;stroke-miterlimit:4;stroke-opacity:1;stroke-dasharray:none"
       id="path3811-4"
       sodipodi:cx="140.14107"
       sodipodi:cy="156.96707"
       sodipodi:rx="1.0818491"
       sodipodi:ry="1.0194347"
       d="m 141.22292,156.96707 a 1.0818491,1.0194347 0 1 1 -2.1637,0 1.0818491,1.0194347 0 1 1 2.1637,0 z"
       transform="matrix(1.1734638,0,0,1.1074484,-0.8986674,732.84273)" />
    <path
       style="color:#000000;fill:none;fill-opacity:1;fill-rule:nonzero;stroke:#008080;stroke-width:1px;stroke-linecap:butt;stroke-linejoin:miter;stroke-miterlimit:4;stroke-opacity:1;stroke-dasharray:none;stroke-dashoffset:0;marker:none;visibility:visible;display:inline;overflow:visible;enable-background:accumulate"
       d="M 119.40347,193.86112 111.69278,165.26465 101.76887,140.55712 101,122"
       id="path3861"
       transform="translate(0,752.36218)"
       sodipodi:nodetypes="cccc" />
    <path
       sodipodi:type="arc"
       style="fill:#ff6600;stroke:#ff6600;stroke-width:1.10000001999999997;stroke-miterlimit:4;stroke-opacity:1;stroke-dasharray:none"
       id="path3754-3"
       sodipodi:cx="216.66667"
       sodipodi:cy="94.278473"
       sodipodi:rx="15.652725"
       sodipodi:ry="17.65345"
       d="m 232.3194,94.278473 a 15.652725,17.65345 0 1 1 -31.30545,0 15.652725,17.65345 0 1 1 31.30545,0 z"
       transform="translate(-115.66667,762.43026)" />
    <path
       sodipodi:type="arc"
       style="fill:#0000ff;stroke:#0000ff;stroke-width:1.10000001999999997;stroke-miterlimit:4;stroke-opacity:1;stroke-dasharray:none"
       id="path3754-8"
       sodipodi:cx="216.66667"
       sodipodi:cy="94.278473"
       sodipodi:rx="15.652725"
       sodipodi:ry="17.65345"
       d="m 232.3194,94.278473 a 15.652725,17.65345 0 1 1 -31.30545,0 15.652725,17.65345 0 1 1 31.30545,0 z"
       transform="translate(-137.11715,770.70041)" />
    <path
       style="color:#000000;fill:none;fill-opacity:1;fill-rule:nonzero;stroke:#008080;stroke-width:1px;stroke-linecap:butt;stroke-linejoin:miter;stroke-miterlimit:4;stroke-opacity:1;stroke-dasharray:none;stroke-dashoffset:0;marker:none;visibility:visible;display:inline;overflow:visible;enable-background:accumulate"
       d="m 79.911373,130.26553 39.236917,63.85535"
       id="path3894"
       transform="translate(0,752.36218)" />
    <flowRoot
       xml:space="preserve"
       id="flowRoot3904"
       style="text-align:start;line-height:100%;writing-mode:lr-tb;text-anchor:start;color:#000000;fill:#000000;fill-opacity:1;fill-rule:nonzero;stroke:#668000;stroke-width:1;stroke-linecap:butt;stroke-linejoin:miter;stroke-miterlimit:4;stroke-opacity:1;stroke-dasharray:none;stroke-dashoffset:0;marker:none;visibility:visible;display:inline;overflow:visible;enable-background:accumulate"
       transform="translate(42.889217,746.58371)"><flowRegion
         id="flowRegion3906"><rect
           id="rect3908"
           width="283.784"
           height="76.498695"
           x="-30.110281"
           y="13.831781" /></flowRegion><flowPara
         id="flowPara3910"
         style="font-size:22px;text-align:start;text-anchor:start;fill:none;stroke:#ff6600">CHOOSE</flowPara><flowPara
         id="flowPara3918"
         style="font-size:22px;text-align:start;text-anchor:start;fill:none;stroke:#ff6600">       </flowPara><flowPara
         id="flowPara3920"
         style="font-size:22px;text-align:start;text-anchor:start;fill:none;stroke:#ff6600">                     LAYERS       </flowPara><flowPara
         id="flowPara3916"
         style="font-size:16px"> </flowPara><flowPara
         id="flowPara3912"
         style="font-size:16px" /><flowPara
         id="flowPara3914"
         style="font-size:16px" /></flowRoot>    <flowRoot
       xml:space="preserve"
       id="flowRoot3922"
       style="fill:#000000;stroke:#668000;stroke-opacity:1;stroke-width:1;stroke-linejoin:miter;stroke-linecap:butt;color:#000000;fill-opacity:1;fill-rule:nonzero;stroke-miterlimit:4;stroke-dasharray:none;stroke-dashoffset:0;marker:none;visibility:visible;display:inline;overflow:visible;enable-background:accumulate;text-anchor:start;text-align:start;writing-mode:lr;line-height:100%"><flowRegion
         id="flowRegion3924"><rect
           id="rect3926"
           width="16.970562"
           height="24.395184"
           x="40.658638"
           y="27.410337" /></flowRegion><flowPara
         id="flowPara3928"></flowPara></flowRoot>    <path
       style="color:#000000;fill:none;fill-opacity:1;fill-rule:nonzero;stroke:#00ff00;stroke-width:1px;stroke-linecap:butt;stroke-linejoin:miter;stroke-miterlimit:4;stroke-opacity:1;stroke-dasharray:none;stroke-dashoffset:0;marker:none;visibility:visible;display:inline;overflow:visible;enable-background:accumulate"
       d="m 0,234.23907 24.749228,-3.40845 13.013707,-0.9319 109.022795,5.74534"
       id="path4019"
       transform="translate(0,752.36218)"
       sodipodi:nodetypes="cccc" />
    <path
       style="color:#000000;fill:none;fill-opacity:1;fill-rule:nonzero;stroke:#00ff00;stroke-width:1px;stroke-linecap:butt;stroke-linejoin:miter;stroke-miterlimit:4;stroke-opacity:1;stroke-dasharray:none;stroke-dashoffset:0;marker:none;visibility:visible;display:inline;overflow:visible;enable-background:accumulate"
       d="m 155.24019,236.12423 8.6615,0.0233"
       id="path4021"
       transform="translate(0,752.36218)" />
    <path
       style="color:#000000;fill:#ff0000;fill-opacity:1;fill-rule:nonzero;stroke:#00ff00;stroke-width:1px;stroke-linecap:butt;stroke-linejoin:miter;stroke-miterlimit:4;stroke-opacity:1;stroke-dasharray:none;stroke-dashoffset:0;marker:none;visibility:visible;display:inline;overflow:visible;enable-background:accumulate"
       d="M 173.06893,236.18712 300,237.24427"
       id="path4023"
       transform="translate(0,752.36218)" />
    <path
       style="color:#000000;fill:#00ff00;fill-opacity:1;fill-rule:nonzero;stroke:#00ff00;stroke-width:1px;stroke-linecap:butt;stroke-linejoin:miter;stroke-miterlimit:4;stroke-opacity:1;stroke-dasharray:none;stroke-dashoffset:0;marker:none;visibility:visible;display:inline;overflow:visible;enable-background:accumulate"
       d="m 271.1745,237.0042 -0.79455,-2.67674 1.06066,0.88388 0.17678,-1.06066 0.53033,0.88388 2.38649,-0.53033 -1.41382,2.51617"
       id="path4025"
       transform="translate(0,752.36218)" />
    <path
       style="color:#000000;fill:#00ff00;fill-opacity:1;fill-rule:nonzero;stroke:#00ff00;stroke-width:1px;stroke-linecap:butt;stroke-linejoin:miter;stroke-miterlimit:4;stroke-opacity:1;stroke-dasharray:none;stroke-dashoffset:0;marker:none;visibility:visible;display:inline;overflow:visible;enable-background:accumulate"
       d="m 69.107657,231.55054 -2.63962,-3.32188 2.740039,1.06066 -0.265165,-2.12132 1.325825,1.5026 2.563262,-0.53033 -1.59099,1.50261 2.474874,-0.0884 -1.945338,2.13638"
       id="path4027"
       transform="translate(0,752.36218)" />
    <path
       style="color:#000000;fill:#00ff00;fill-opacity:1;fill-rule:nonzero;stroke:#00ff00;stroke-width:1px;stroke-linecap:butt;stroke-linejoin:miter;stroke-miterlimit:4;stroke-opacity:1;stroke-dasharray:none;stroke-dashoffset:0;marker:none;visibility:visible;display:inline;overflow:visible;enable-background:accumulate"
       d="M 237.3721,236.72267 235.375,234 l 2.99183,2.73096 3.38317,-2.60596 -1.25103,2.62371"
       id="path4029"
       transform="translate(0,752.36218)" />
    <path
       style="color:#000000;fill:none;fill-opacity:1;fill-rule:nonzero;stroke:#00ff00;stroke-width:1px;stroke-linecap:butt;stroke-linejoin:miter;stroke-miterlimit:4;stroke-opacity:1;stroke-dasharray:none;stroke-dashoffset:0;marker:none;visibility:visible;display:inline;overflow:visible;enable-background:accumulate"
       d="M 238.12586,236.511 238.375,231"
       id="path4031"
       transform="translate(0,752.36218)" />
    <path
       sodipodi:type="arc"
       style="fill:none;stroke:#ffff00;stroke-width:0.40000001000000002;stroke-miterlimit:4;stroke-opacity:1;stroke-dasharray:none"
       id="path4035"
       sodipodi:cx="238"
       sodipodi:cy="218.125"
       sodipodi:rx="1.25"
       sodipodi:ry="1.125"
       d="m 239.25,218.125 a 1.25,1.125 0 1 1 -2.5,0 1.25,1.125 0 1 1 2.5,0 z"
       transform="translate(0.375,764.11218)" />
    <path
       style="fill:#00ff00;fill-opacity:1;stroke:#ffff00;stroke-width:0.07071068;stroke-miterlimit:4;stroke-opacity:1;stroke-dasharray:none"
       d="m 91.797743,233.18147 -54.00528,-2.87414 -6.805903,0.5008 c -5.822853,0.42845 -8.478366,0.73106 -18.384776,2.09504 -6.3683806,0.87684 -11.79763484,1.63323 -12.0650096,1.68088 -0.42271822,0.0753 -0.48613591,0.0296 -0.48613591,-0.3509 0,-0.24064 0.05966214,-0.43857 0.13258252,-0.43984 0.0729204,-0.001 5.58172419,-0.75678 12.24178599,-1.6789 10.72386,-1.48477 12.877716,-1.73082 18.826718,-2.15067 l 6.717515,-0.47409 15.026019,0.7998 c 8.26431,0.4399 15.056629,0.77488 15.094042,0.74441 0.03741,-0.0305 -0.546636,-0.81959 -1.297884,-1.75361 -0.751249,-0.93403 -1.33379,-1.73034 -1.294539,-1.76959 0.03925,-0.0393 0.770354,0.20304 1.624672,0.53843 l 1.553303,0.6098 -0.111979,-1.27652 -0.111981,-1.27653 0.972892,1.05546 0.972892,1.05547 1.640728,-0.32928 c 0.9024,-0.18111 1.760051,-0.3669 1.905892,-0.41288 0.145841,-0.046 -0.112695,0.24993 -0.574524,0.65759 -0.461829,0.40765 -0.83969,0.81058 -0.83969,0.89539 0,0.0848 0.434981,0.17806 0.966622,0.20722 l 0.966622,0.053 -0.878396,0.99996 -0.878396,0.99996 1.635347,0.11323 c 1.412004,0.0978 71.851298,3.80887 72.295078,3.80887 0.0902,0 0.1385,0.17899 0.10744,0.39775 -0.0402,0.28265 -0.18438,0.40502 -0.49843,0.42288 -0.24307,0.0138 -24.74432,-1.26822 -54.447227,-2.849 l 0,0 z"
       id="path4041"
       transform="translate(0,752.36218)" />
  </g>
</svg>
